Coordinates
version=1
nRows=27
nColumns=12
inDegrees=yes

Units are S.I. units (second, meters, Newtons, ...)
Angles are in degrees

endheader
time	SC_y	SC_z	SC_x	AC_y	AC_z	AC_x	GH_y	GH_z	GH_yy	EL_x	PS_y
       0.0              -23.86          16.34          82.22          55.73         -10.66          6.525          5.685          26.28         -53.53          77.16          140.8
   0.01941              -23.87          16.34          82.21          55.73         -10.66          6.523           5.66          26.28          -53.5          77.17          140.8
   0.03882              -23.87          16.34           82.2          55.72         -10.66           6.52          5.634          26.27         -53.48          77.18          140.8
   0.05822              -23.87          16.34          82.19          55.72         -10.65          6.517          5.606          26.27         -53.45          77.19          140.8
   0.07763              -23.87          16.34          82.18          55.72         -10.65          6.514          5.577          26.26         -53.42           77.2          140.8
   0.09704              -23.88          16.35          82.17          55.72         -10.65          6.511          5.545          26.26         -53.39          77.21          140.8
    0.1164              -23.88          16.35          82.16          55.72         -10.65          6.508          5.511          26.25         -53.36          77.22          140.8
    0.1359              -23.88          16.35          82.15          55.72         -10.64          6.504          5.475          26.25         -53.32          77.23          140.8
    0.1553              -23.88          16.35          82.14          55.71         -10.64            6.5          5.436          26.24         -53.28          77.24          140.8
    0.1747              -23.89          16.35          82.12          55.71         -10.64          6.496          5.395          26.24         -53.24          77.26          140.8
    0.1941              -23.89          16.35          82.11          55.71         -10.63          6.491           5.35          26.23          -53.2          77.27          140.8
    0.2135               -23.9          16.35           82.1          55.71         -10.63          6.486          5.302          26.22         -53.15          77.29          140.7
    0.2329               -23.9          16.35          82.08           55.7         -10.63          6.481          5.251          26.22          -53.1          77.31          140.7
    0.2523               -23.9          16.35          82.06           55.7         -10.62          6.475          5.195          26.21         -53.05          77.32          140.7
    0.2717              -23.91          16.35          82.04           55.7         -10.62          6.469          5.134           26.2         -52.99          77.34          140.7
    0.2911              -23.91          16.36          82.02          55.69         -10.61          6.463          5.069          26.19         -52.93          77.37          140.7
    0.3105              -23.92          16.36           82.0          55.69         -10.61          6.455          4.998          26.18         -52.86          77.39          140.7
    0.3299              -23.93          16.36          81.98          55.69          -10.6          6.448           4.92          26.17         -52.78          77.42          140.7
    0.3493              -23.93          16.36          81.95          55.68         -10.59          6.439          4.835          26.16          -52.7          77.44          140.7
    0.3687              -23.94          16.36          81.92          55.68         -10.59           6.43          4.743          26.14         -52.61          77.48          140.6
    0.3882              -23.95          16.36          81.89          55.67         -10.58          6.419          4.641          26.13         -52.51          77.51          140.6
    0.4076              -23.96          16.37          81.85          55.67         -10.57          6.408          4.529          26.11          -52.4          77.55          140.6
     0.427              -23.97          16.37          81.82          55.66         -10.56          6.395          4.405          26.09         -52.28          77.59          140.6
    0.4464              -23.98          16.37          81.77          55.65         -10.55          6.381          4.268          26.07         -52.15          77.63          140.6
    0.4658              -23.99          16.38          81.72          55.64         -10.54          6.366          4.115          26.05          -52.0          77.69          140.5
    0.4852              -24.01          16.38          81.67          55.64         -10.52          6.349          3.945          26.03         -51.83          77.74          140.5
    0.5046              -24.02          16.38          81.61          55.63         -10.51          6.329          3.754           26.0         -51.65          77.81          140.5
